<svg width="140" height="48" viewBox="0 0 140 48" xmlns="http://www.w3.org/2000/svg">
  <defs>
    <pattern id="washiStripes" width="14" height="14" patternTransform="rotate(45)" patternUnits="userSpaceOnUse">
      <rect width="14" height="14" fill="#f4f0e8" fill-opacity="0" />
      <rect width="7" height="14" fill="#008080" fill-opacity="0.35" />
    </pattern>
  </defs>
  <path
    d="M4 2 L136 0 L138 10 L132 14 L138 20 L134 26 L139 34 L133 40 L136 46 L4 48 L2 40 L7 34 L1 26 L6 20 L0 14 L6 10 Z"
    fill="#f4f0e8"
    opacity="0.92"
    stroke="#1a1a1a"
    stroke-width="1"
    stroke-opacity="0.15"
  />
  <path
    d="M4 2 L136 0 L138 10 L132 14 L138 20 L134 26 L139 34 L133 40 L136 46 L4 48 L2 40 L7 34 L1 26 L6 20 L0 14 L6 10 Z"
    fill="url(#washiStripes)"
  />
</svg>
